<svg width="52" height="52" viewBox="0 0 52 52" fill="none" xmlns="http://www.w3.org/2000/svg">
<path d="M25.5714 47.3066C25.0755 47.3066 24.6504 47.1649 24.2961 46.8816C23.9419 46.5982 23.6762 46.2262 23.4991 45.7657C22.8261 43.782 21.9759 41.9222 20.9486 40.1864C19.9567 38.4507 18.5575 36.4138 16.7509 34.0758C14.9442 31.7378 13.4741 29.5061 12.3406 27.3807C11.2424 25.2552 10.6934 22.687 10.6934 19.676C10.6934 15.5314 12.128 12.0244 14.9974 9.15507C17.9021 6.25031 21.4268 4.79793 25.5714 4.79793C29.716 4.79793 33.223 6.25031 36.0923 9.15507C38.9971 12.0244 40.4495 15.5314 40.4495 19.676C40.4495 22.8996 39.8295 25.5918 38.5897 27.7526C37.3853 29.8781 35.986 31.9858 34.392 34.0758C32.4791 36.6263 31.0267 38.7518 30.0348 40.4521C29.0784 42.117 28.2813 43.8882 27.6437 45.7657C27.4666 46.2616 27.1832 46.6513 26.7935 46.9347C26.4393 47.1827 26.0319 47.3066 25.5714 47.3066ZM25.5714 24.9896C27.0592 24.9896 28.3168 24.4759 29.3441 23.4486C30.3714 22.4213 30.885 21.1638 30.885 19.676C30.885 18.1882 30.3714 16.9306 29.3441 15.9033C28.3168 14.876 27.0592 14.3624 25.5714 14.3624C24.0836 14.3624 22.8261 14.876 21.7988 15.9033C20.7715 16.9306 20.2578 18.1882 20.2578 19.676C20.2578 21.1638 20.7715 22.4213 21.7988 23.4486C22.8261 24.4759 24.0836 24.9896 25.5714 24.9896Z" fill="#0099FF"/>
</svg>
