<svg width="26" height="26" viewBox="0 0 26 26" fill="none" xmlns="http://www.w3.org/2000/svg">
<path d="M9.42493 18.4286L13.2507 14.6028L17.0765 18.4286L18.5643 16.9408L14.7385 13.115L18.5643 9.28922L17.0765 7.80141L13.2507 11.6272L9.42493 7.80141L7.93712 9.28922L11.7629 13.115L7.93712 16.9408L9.42493 18.4286ZM13.2507 23.7422C11.7806 23.7422 10.3991 23.4632 9.10611 22.9053C7.81314 22.3474 6.68843 21.5902 5.73198 20.6337C4.77554 19.6773 4.01835 18.5526 3.46043 17.2596C2.9025 15.9666 2.62354 14.5851 2.62354 13.115C2.62354 11.6449 2.9025 10.2634 3.46043 8.9704C4.01835 7.67743 4.77554 6.55272 5.73198 5.59627C6.68843 4.63983 7.81314 3.88264 9.10611 3.32471C10.3991 2.76679 11.7806 2.48782 13.2507 2.48782C14.7208 2.48782 16.1023 2.76679 17.3953 3.32471C18.6883 3.88264 19.813 4.63983 20.7694 5.59627C21.7259 6.55272 22.4831 7.67743 23.041 8.9704C23.5989 10.2634 23.8779 11.6449 23.8779 13.115C23.8779 14.5851 23.5989 15.9666 23.041 17.2596C22.4831 18.5526 21.7259 19.6773 20.7694 20.6337C19.813 21.5902 18.6883 22.3474 17.3953 22.9053C16.1023 23.4632 14.7208 23.7422 13.2507 23.7422ZM13.2507 21.6167C15.6241 21.6167 17.6344 20.7931 19.2816 19.1459C20.9288 17.4987 21.7525 15.4884 21.7525 13.115C21.7525 10.7416 20.9288 8.73129 19.2816 7.08408C17.6344 5.43687 15.6241 4.61326 13.2507 4.61326C10.8773 4.61326 8.867 5.43687 7.21979 7.08408C5.57258 8.73129 4.74897 10.7416 4.74897 13.115C4.74897 15.4884 5.57258 17.4987 7.21979 19.1459C8.867 20.7931 10.8773 21.6167 13.2507 21.6167Z" fill="#49454F"/>
</svg>
